<svg width="56" height="56" viewBox="0 0 56 56" fill="none" xmlns="http://www.w3.org/2000/svg">
<path d="M49 30.3333V25.6667M25.0833 32.6667V23.3333M16.3333 23.3333V32.6667M33.8333 32.6667V23.3333M21 42H29.1667C34.6241 42 37.3528 42 39.3449 40.7482C40.3838 40.0955 41.2622 39.2171 41.9149 38.1783C43.1667 36.1861 43.1667 33.4574 43.1667 28C43.1667 22.5426 43.1667 19.8139 41.9149 17.8217C41.2622 16.7829 40.3838 15.9045 39.3449 15.2518C37.3528 14 34.6241 14 29.1667 14H21C15.5426 14 12.8139 14 10.8217 15.2518C9.78291 15.9045 8.90449 16.7829 8.25175 17.8217C7 19.8139 7 22.5426 7 28C7 33.4574 7 36.1861 8.25175 38.1783C8.90449 39.2171 9.78291 40.0955 10.8217 40.7482C12.8139 42 15.5426 42 21 42Z" stroke="#2C2C2C" stroke-width="3" stroke-linecap="round" stroke-linejoin="round"/>
</svg>
