<svg width="56" height="56" viewBox="0 0 56 56" fill="none" xmlns="http://www.w3.org/2000/svg">
<path d="M17.4993 7H38.4993M17.4993 7V17.5C17.4993 18.5835 17.4993 19.1252 17.5443 19.5815C17.9807 24.0127 21.4866 27.5186 25.9179 27.9551C26.3742 28 26.9159 28 27.9993 28M17.4993 7H11.666M38.4993 7V17.5C38.4993 18.5835 38.4993 19.1252 38.4544 19.5815C38.018 24.0127 34.5121 27.5186 30.0808 27.9551C29.6245 28 29.0828 28 27.9993 28M38.4993 7H44.3327M27.9993 28C29.0828 28 29.6245 28 30.0808 28.0449C34.5121 28.4814 38.018 31.9873 38.4544 36.4185C38.4993 36.8748 38.4993 37.4165 38.4993 38.5V49M27.9993 28C26.9159 28 26.3742 28 25.9179 28.0449C21.4866 28.4814 17.9807 31.9873 17.5443 36.4185C17.4993 36.8748 17.4993 37.4165 17.4993 38.5V49M38.4993 49H17.4993M38.4993 49H44.3327M17.4993 49H11.666" stroke="white" stroke-width="3" stroke-linecap="round" stroke-linejoin="round"/>
</svg>
