<svg width="56" height="56" viewBox="0 0 56 56" fill="none" xmlns="http://www.w3.org/2000/svg">
<path d="M30.3327 27.9993C30.3327 29.288 29.288 30.3327 27.9993 30.3327C26.7107 30.3327 25.666 29.288 25.666 27.9993C25.666 26.7107 26.7107 25.666 27.9993 25.666C29.288 25.666 30.3327 26.7107 30.3327 27.9993Z" stroke="#2C2C2C" stroke-width="3" stroke-linejoin="round"/>
<path d="M36.1654 28C36.1654 16.402 32.509 7 27.9987 7C23.4884 7 19.832 16.402 19.832 28C19.832 39.598 23.4884 49 27.9987 49C32.509 49 36.1654 39.598 36.1654 28Z" stroke="#2C2C2C" stroke-width="3" stroke-linejoin="round"/>
<path d="M23.9155 35.0725C13.8713 29.2736 7.55711 21.4061 9.81227 17.5C12.0674 13.5939 22.038 15.1285 32.0821 20.9275C42.1263 26.7265 48.4405 34.5939 46.1853 38.5C43.9302 42.4061 33.9596 40.8715 23.9155 35.0725Z" stroke="#2C2C2C" stroke-width="3" stroke-linejoin="round"/>
<path d="M32.0821 35.0722C42.1263 29.2732 48.4405 21.4057 46.1853 17.4996C43.9302 13.5936 33.9596 15.1281 23.9154 20.9271C13.8713 26.7261 7.5571 34.5936 9.81227 38.4996C12.0674 42.4057 22.038 40.8712 32.0821 35.0722Z" stroke="#2C2C2C" stroke-width="3" stroke-linejoin="round"/>
</svg>
