<svg width="38" height="38" viewBox="0 0 38 38" fill="none" xmlns="http://www.w3.org/2000/svg">
<path d="M16.0977 3.16666C11.4664 3.16666 7.78516 6.84791 7.78516 11.4792C7.77704 12.8411 8.1056 14.1839 8.74162 15.3882C9.37764 16.5925 10.3014 17.6209 11.4308 18.3821C7.20328 20.2025 4.22266 24.4134 4.22266 29.2917H6.59766C6.59766 24.0667 10.8727 19.7917 16.0977 19.7917C20.7289 19.7917 24.4102 16.1104 24.4102 11.4792C24.4102 6.84791 20.7289 3.16666 16.0977 3.16666ZM16.0977 5.54166C19.4227 5.54166 22.0352 8.15416 22.0352 11.4792C22.0352 14.8042 19.4227 17.4167 16.0977 17.4167C12.7727 17.4167 10.1602 14.8042 10.1602 11.4792C10.1602 8.15416 12.7727 5.54166 16.0977 5.54166ZM25.7164 18.6042V21.0979C25.0039 21.2167 24.2914 21.5729 23.6977 21.9292L21.9164 20.1479L20.2539 21.8104L22.0352 23.5917C21.5602 24.1854 21.3227 24.8979 21.2039 25.7292H18.4727V28.1042H20.9664C21.0852 28.8167 21.4414 29.5292 21.7977 30.2417L20.0164 32.0229L21.6789 33.6854L23.4602 31.9042C24.0539 32.2604 24.7664 32.6167 25.4789 32.7354V35.2292H27.8539V32.7354C28.5664 32.6167 29.2789 32.2604 29.8727 31.9042L31.6539 33.6854L33.3164 32.0229L31.5352 30.2417C32.0102 29.6479 32.2477 28.9354 32.3664 28.1042H35.0977V25.7292H32.6039C32.4852 25.0167 32.1289 24.3042 31.7727 23.5917L33.5539 21.8104L31.8914 20.1479L30.1102 21.9292C29.5164 21.5729 28.8039 21.2167 28.0914 21.0979V18.6042H25.7164ZM26.7852 23.3542C28.8039 23.3542 30.3477 24.8979 30.3477 26.9167C30.3477 28.9354 28.8039 30.4792 26.7852 30.4792C24.7664 30.4792 23.2227 28.9354 23.2227 26.9167C23.2227 24.8979 24.7664 23.3542 26.7852 23.3542ZM26.7852 25.7292C26.6343 25.7321 26.4858 25.7669 26.3493 25.8313C26.2075 25.8976 26.0788 25.9889 25.9693 26.1008C25.8574 26.2103 25.7661 26.339 25.6998 26.4808C25.6354 26.6173 25.6006 26.7658 25.5977 26.9167C25.5977 27.362 25.9313 27.8073 26.3493 28.002C26.4858 28.0665 26.6343 28.1013 26.7852 28.1042C27.3789 28.1042 27.9727 27.5104 27.9727 26.9167C27.9727 26.3229 27.3789 25.7292 26.7852 25.7292Z" fill="black"/>
</svg>
