<svg width="36" height="36" viewBox="0 0 36 36" fill="none" xmlns="http://www.w3.org/2000/svg">
<g clip-path="url(#clip0_477_2297)">
<path d="M23.7305 18.3867C23.3555 18.5625 22.9922 18.7559 22.6406 18.9668C22.2891 19.1777 21.9434 19.4121 21.6035 19.6699C20.7246 19.1191 19.7871 18.7031 18.791 18.4219C17.7949 18.1406 16.7813 18 15.75 18C14.7187 18 13.7227 18.1348 12.7617 18.4043C11.8008 18.6738 10.9043 19.0488 10.0723 19.5293C9.24023 20.0098 8.48438 20.5957 7.80469 21.2871C7.125 21.9785 6.53906 22.7402 6.04688 23.5723C5.55469 24.4043 5.17383 25.3008 4.9043 26.2617C4.63477 27.2227 4.5 28.2187 4.5 29.25H2.25C2.25 27.8438 2.45508 26.4902 2.86523 25.1895C3.27539 23.8887 3.86719 22.6875 4.64062 21.5859C5.41406 20.4844 6.32812 19.5059 7.38281 18.6504C8.4375 17.7949 9.63281 17.1211 10.9688 16.6289C9.64453 15.7617 8.61328 14.6719 7.875 13.3594C7.13672 12.0469 6.76172 10.5937 6.75 9C6.75 7.75781 6.98438 6.5918 7.45312 5.50195C7.92187 4.41211 8.56055 3.45703 9.36914 2.63672C10.1777 1.81641 11.1328 1.17187 12.2344 0.703125C13.3359 0.234375 14.5078 0 15.75 0C16.9922 0 18.1582 0.234375 19.248 0.703125C20.3379 1.17187 21.293 1.81055 22.1133 2.61914C22.9336 3.42773 23.5781 4.38281 24.0469 5.48438C24.5156 6.58594 24.75 7.75781 24.75 9C24.75 9.77344 24.6563 10.5293 24.4688 11.2676C24.2812 12.0059 24 12.7031 23.625 13.3594C23.25 14.0156 22.8105 14.6191 22.3066 15.1699C21.8027 15.7207 21.2109 16.207 20.5312 16.6289C21.6562 17.0625 22.7227 17.6484 23.7305 18.3867ZM9 9C9 9.9375 9.17578 10.8105 9.52734 11.6191C9.87891 12.4277 10.3594 13.1426 10.9688 13.7637C11.5781 14.3848 12.293 14.8711 13.1133 15.2227C13.9336 15.5742 14.8125 15.75 15.75 15.75C16.6758 15.75 17.5488 15.5742 18.3691 15.2227C19.1895 14.8711 19.9043 14.3906 20.5137 13.7812C21.123 13.1719 21.6094 12.457 21.9727 11.6367C22.3359 10.8164 22.5117 9.9375 22.5 9C22.5 8.07422 22.3242 7.20117 21.9727 6.38086C21.6211 5.56055 21.1406 4.8457 20.5312 4.23633C19.9219 3.62695 19.2012 3.14062 18.3691 2.77734C17.5371 2.41406 16.6641 2.23828 15.75 2.25C14.8125 2.25 13.9395 2.42578 13.1309 2.77734C12.3223 3.12891 11.6074 3.60937 10.9863 4.21875C10.3652 4.82813 9.87891 5.54883 9.52734 6.38086C9.17578 7.21289 9 8.08594 9 9ZM36 20.25V27H29.25V24.75H32.5898C32.0625 24.0469 31.4063 23.4961 30.6211 23.0977C29.8359 22.6992 29.0039 22.5 28.125 22.5C27.4336 22.5 26.7832 22.6172 26.1738 22.8516C25.5645 23.0859 25.0078 23.4082 24.5039 23.8184C24 24.2285 23.5898 24.7266 23.2734 25.3125C22.957 25.8984 22.7344 26.5254 22.6055 27.1934L20.373 26.8066C20.5371 25.8574 20.8535 24.9844 21.3223 24.1875C21.791 23.3906 22.3652 22.6992 23.0449 22.1133C23.7246 21.5273 24.5039 21.0703 25.3828 20.7422C26.2617 20.4141 27.1758 20.25 28.125 20.25C29.1914 20.25 30.2109 20.4551 31.1836 20.8652C32.1562 21.2754 33.0117 21.873 33.75 22.6582V20.25H36ZM28.125 33.75C28.8047 33.75 29.4551 33.6328 30.0762 33.3984C30.6973 33.1641 31.2539 32.8418 31.7461 32.4316C32.2383 32.0215 32.6484 31.5234 32.9766 30.9375C33.3047 30.3516 33.5273 29.7246 33.6445 29.0566L35.877 29.4434C35.7129 30.3926 35.3965 31.2656 34.9277 32.0625C34.459 32.8594 33.8848 33.5508 33.2051 34.1367C32.5254 34.7227 31.7461 35.1797 30.8672 35.5078C29.9883 35.8359 29.0742 36 28.125 36C27.0586 36 26.0391 35.7949 25.0664 35.3848C24.0938 34.9746 23.2383 34.377 22.5 33.5918V36H20.25V29.25H27V31.5H23.6602C24.1875 32.2031 24.8437 32.7539 25.6289 33.1523C26.4141 33.5508 27.2461 33.75 28.125 33.75Z" fill="black"/>
<path d="M28 10.5841C28.3901 9.90513 28.5954 9.13571 28.5954 8.35261C28.5954 7.5695 28.3901 6.80008 28 6.12108M33.4359 13.7106C34.3727 12.0814 34.866 10.2351 34.8666 8.35577C34.8672 6.47647 34.3752 4.62983 33.4395 3" stroke="black" stroke-width="2.5" stroke-linecap="square"/>
</g>
<defs>
<clipPath id="clip0_477_2297">
<rect width="36" height="36" fill="white"/>
</clipPath>
</defs>
</svg>
