<svg width="43" height="43" viewBox="0 0 43 43" fill="none" xmlns="http://www.w3.org/2000/svg">
<path d="M17.4375 3C12.1969 3 8.03125 7.16562 8.03125 12.4062C8.02207 13.9474 8.39386 15.4668 9.11357 16.8296C9.83327 18.1924 10.8786 19.3561 12.1566 20.2175C7.37281 22.2774 4 27.0424 4 32.5625H6.6875C6.6875 26.65 11.525 21.8125 17.4375 21.8125C19.05 21.8125 20.6625 22.2156 22.0062 22.8875C22.4094 22.0812 22.8125 21.275 23.4844 20.6031C23.217 20.4688 22.9415 20.3626 22.6687 20.2457C23.9599 19.3874 25.0174 18.2216 25.7462 16.8532C26.475 15.4848 26.8522 13.9566 26.8438 12.4062C26.8438 7.16562 22.6781 3 17.4375 3ZM17.4375 5.6875C21.2 5.6875 24.1562 8.64375 24.1562 12.4062C24.1562 16.1687 21.2 19.125 17.4375 19.125C13.675 19.125 10.7188 16.1687 10.7188 12.4062C10.7188 8.64375 13.675 5.6875 17.4375 5.6875ZM29.5312 20.4688C26.575 20.4688 24.1562 22.8875 24.1562 25.8438V28.5312H20.125V39.2812H38.9375V28.5312H34.9062V25.8438C34.9062 22.8875 32.4875 20.4688 29.5312 20.4688ZM29.5312 23.1562C31.0094 23.1562 32.2188 24.3656 32.2188 25.8438V28.5312H26.8438V25.8438C26.8438 24.3656 28.0531 23.1562 29.5312 23.1562ZM22.8125 31.2188H36.25V36.5938H22.8125V31.2188Z" fill="black"/>
<path d="M30 14.5841C30.3901 13.9051 30.5954 13.1357 30.5954 12.3526C30.5954 11.5695 30.3901 10.8001 30 10.1211M35.4359 17.7106C36.3727 16.0814 36.866 14.2351 36.8666 12.3558C36.8672 10.4765 36.3752 8.62983 35.4395 7" stroke="black" stroke-width="2.5" stroke-linecap="square"/>
</svg>
