<svg width="193" height="50" viewBox="0 0 193 50" fill="none" xmlns="http://www.w3.org/2000/svg">
<path d="M8.55361 35.6423C8.55361 41.1269 0.0429701 41.1269 0.0429699 35.6423L0.0429688 4.57847C0.0429686 -0.906203 8.55361 -0.906203 8.55361 4.57847V35.6423Z" fill="#2C2C2C"/>
<path d="M22.3837 45.7438C22.3837 51.2285 13.873 51.2285 13.873 45.7438V14.68C13.873 9.19536 22.3837 9.19536 22.3837 14.68V45.7438Z" fill="#2C2C2C"/>
<path d="M36.2138 35.6423C36.2138 41.1269 27.7031 41.1269 27.7031 35.6423V4.57847C27.7031 -0.906203 36.2138 -0.906203 36.2138 4.57847V35.6423Z" fill="#2C2C2C"/>
<path d="M50.042 45.7439C50.042 51.2286 41.5313 51.2286 41.5312 45.7439V15.6801C41.5312 10.1954 50.042 10.1954 50.042 15.6801V45.7439Z" fill="#2C2C2C"/>
<mask id="mask0_463_2278" style="mask-type:luminance" maskUnits="userSpaceOnUse" x="65" y="0" width="128" height="50">
<path d="M192.043 0H65.043V50H192.043V0Z" fill="white"/>
</mask>
<g mask="url(#mask0_463_2278)">
<path d="M80.3349 32.144V36.5H65.2539V13.4H80.3349V17.756H70.3689V22.871H79.0149V27.029H70.3689V32.144H80.3349ZM89.1216 36.5H84.1386V19.307H88.3296L88.7256 21.65C90.3426 19.901 92.2566 19.01 94.5996 19.01C96.7116 19.01 98.1306 19.637 99.0216 20.825C99.2856 21.155 99.4836 21.485 99.6486 21.881C101.332 19.934 103.246 19.01 105.622 19.01C107.8 19.01 109.252 19.637 110.143 20.825C111.067 22.046 111.331 23.465 111.331 26.963V36.5H106.381V28.085C106.381 26.105 106.249 25.247 105.721 24.554C105.16 23.894 104.401 23.63 103.213 23.63C102.124 23.63 101.167 23.96 100.177 24.785C100.243 25.412 100.243 26.105 100.243 26.963V36.5H95.2596V28.085C95.2596 26.105 95.1606 25.247 94.5996 24.554C94.0716 23.894 93.3126 23.63 92.1906 23.63C90.9696 23.63 89.8476 24.059 89.1216 24.818V36.5ZM123.541 36.764C122.254 36.764 120.868 36.533 119.548 36.038L115.753 36.5V11.42H120.736V21.551C121.957 19.868 123.607 18.977 125.851 18.977C129.679 18.977 132.253 21.848 132.253 27.227C132.253 33.365 128.755 36.764 123.541 36.764ZM120.736 25.643V32.309C121.495 32.639 122.221 32.771 122.98 32.771C125.389 32.771 127.072 31.187 127.072 27.722C127.072 24.818 125.818 23.399 124.003 23.399C122.551 23.399 121.495 24.191 120.736 25.643ZM140.394 36.5H135.411V11.42H140.394V36.5ZM152.972 36.764C146.702 36.764 143.567 33.86 143.567 27.854C143.567 22.112 147.461 18.977 151.916 18.977C156.635 18.977 158.912 21.815 158.912 26.765C158.912 27.689 158.846 28.514 158.78 29.339H148.649C149.144 31.913 150.893 32.804 154.094 32.804C155.414 32.804 156.767 32.672 157.922 32.507L157.691 36.434C156.503 36.632 154.886 36.764 152.972 36.764ZM151.784 22.673C150.068 22.673 148.814 23.894 148.55 26.633L154.193 26.336C154.193 23.828 153.434 22.673 151.784 22.673ZM167.239 36.5H162.256V19.307H166.447L166.843 21.65C168.46 19.901 170.374 19.01 172.717 19.01C174.829 19.01 176.248 19.637 177.139 20.825C177.403 21.155 177.601 21.485 177.766 21.881C179.449 19.934 181.363 19.01 183.739 19.01C185.917 19.01 187.369 19.637 188.26 20.825C189.184 22.046 189.448 23.465 189.448 26.963V36.5H184.498V28.085C184.498 26.105 184.366 25.247 183.838 24.554C183.277 23.894 182.518 23.63 181.33 23.63C180.241 23.63 179.284 23.96 178.294 24.785C178.36 25.412 178.36 26.105 178.36 26.963V36.5H173.377V28.085C173.377 26.105 173.278 25.247 172.717 24.554C172.189 23.894 171.43 23.63 170.308 23.63C169.087 23.63 167.965 24.059 167.239 24.818V36.5Z" fill="#2C2C2C"/>
</g>
</svg>
