<svg width="207" height="51" viewBox="0 0 207 51" fill="none" xmlns="http://www.w3.org/2000/svg">
<path fill-rule="evenodd" clip-rule="evenodd" d="M40.209 28.0528V44.7909L49.1262 39.66V22.9219L40.209 28.0528Z" fill="#2C2C2C"/>
<path opacity="0.5" fill-rule="evenodd" clip-rule="evenodd" d="M22.4706 10.4142L9.71407 17.7744L0.796875 12.6435L22.4706 0.152344L37.7219 8.96338L28.84 14.0943L22.4706 10.4142Z" fill="#2C2C2C"/>
<path opacity="0.5" fill-rule="evenodd" clip-rule="evenodd" d="M25.7383 36.3955L40.2092 28.053L49.1087 22.9044L40.2092 17.7734L25.7383 26.1514V36.3955Z" fill="#2C2C2C"/>
<path fill-rule="evenodd" clip-rule="evenodd" d="M0.796875 12.6426V37.6603L22.4706 50.1514V39.8896L9.71407 32.5293V17.7735L0.796875 12.6426Z" fill="#2C2C2C"/>
<mask id="mask0_464_2289" style="mask-type:luminance" maskUnits="userSpaceOnUse" x="65" y="0" width="142" height="50">
<path d="M206.133 0H65.1328V50H206.133V0Z" fill="white"/>
</mask>
<g mask="url(#mask0_464_2289)">
<path d="M83.4224 35.9665C81.8414 36.5865 79.9194 36.7725 77.8734 36.7725C77.5634 36.7725 77.2534 36.7725 76.9434 36.7415C70.2164 36.4315 65.3184 32.4015 65.3184 25.2715C65.3184 18.0795 70.5574 13.6775 77.5634 13.6775C79.7024 13.6775 81.7794 14.0805 83.3294 14.8245L83.0504 20.1255C81.7794 19.5365 80.0124 19.1025 78.0904 19.1025C73.3474 19.1025 70.4644 21.6755 70.4644 25.5815C70.4644 29.3015 72.6964 31.6575 76.5094 32.0915C77.1914 32.1535 77.9354 32.1535 78.6174 32.1225V26.1085H83.4224V35.9665ZM86.6174 36.4005V19.5675H91.3294V21.7995H91.4534C92.3214 20.0015 94.3674 19.1645 97.0954 19.1645L96.7854 24.6515C92.8174 24.4965 91.4224 26.0775 91.4224 29.9835V36.4005H86.6174ZM108.2 25.7055C108.2 24.7135 107.208 24.0935 105.131 24.0935C103.116 24.0935 101.225 24.6825 99.7367 25.3645L99.3957 20.5595C100.853 19.7845 103.054 19.1645 105.627 19.1645C110.897 19.1645 113.16 21.6135 113.16 26.1395V36.4005H108.262V34.3545C107.022 35.8425 105.596 36.8035 103.116 36.8035C100.326 36.8035 98.3107 35.3465 98.3107 32.5255C98.3107 28.9295 101.194 27.8755 104.79 27.2865C106.154 27.0385 106.898 26.8525 107.549 26.6045C108.076 26.3875 108.2 26.1395 108.2 25.7055ZM108.262 29.0845C107.766 29.3325 106.96 29.6425 105.937 29.8595C104.325 30.2315 103.333 30.6345 103.333 32.0295C103.333 33.1455 104.263 33.6725 105.441 33.6725C106.805 33.6725 107.797 32.8355 108.262 31.8125V29.0845ZM116.376 42.2905V19.5675H121.088V21.5825H121.212C122.173 20.0945 124.064 19.1645 126.358 19.1645C130.915 19.1645 134.325 22.4195 134.325 27.9995C134.325 33.5795 130.636 36.8035 126.327 36.8035C124.157 36.8035 122.235 35.8425 121.274 34.0755H121.181V42.2905H116.376ZM125.304 32.3705C127.536 32.3705 129.272 30.6345 129.272 28.2165C129.272 25.7985 127.536 24.0935 125.304 24.0935C123.041 24.0935 121.274 25.7055 121.274 28.2165C121.274 30.6965 123.041 32.3705 125.304 32.3705ZM148.276 27.8445C148.276 25.5505 147.315 24.0005 145.052 24.0005C142.82 24.0005 141.797 25.5195 141.797 27.8755V36.4005H136.992V12.8405H141.704V21.5205H141.828C142.82 20.0635 144.339 19.1645 146.726 19.1645C150.911 19.1645 153.05 21.9545 153.05 26.0465V36.4005H148.276V27.8445ZM170.5 36.0595C169.012 36.5865 167.338 36.8035 165.509 36.8035C159.433 36.8035 155.558 33.7035 155.558 27.9065C155.558 22.8845 158.844 19.1645 163.897 19.1645C169.043 19.1645 171.616 23.1945 171.616 27.7515C171.616 28.4335 171.585 29.1775 171.461 29.7355H160.921C161.541 31.8745 163.463 32.8355 166.377 32.8355C167.803 32.8355 168.981 32.6495 170.097 32.2465L170.5 36.0595ZM163.959 23.6285C162.409 23.6285 161.014 24.5275 160.673 26.7905H167.09C166.997 25.0235 165.757 23.6285 163.959 23.6285ZM174.259 36.4005V19.5675H178.971V21.7995H179.095C179.963 20.0015 182.009 19.1645 184.737 19.1645L184.427 24.6515C180.459 24.4965 179.064 26.0775 179.064 29.9835V36.4005H174.259ZM186.073 36.4005V32.7735L193.606 24.1555H186.414V19.5675H199.465V23.8765L191.932 32.2155H199.62V36.4005H186.073Z" fill="#2C2C2C"/>
</g>
</svg>
