<svg width="174" height="50" viewBox="0 0 174 50" fill="none" xmlns="http://www.w3.org/2000/svg">
<g clip-path="url(#clip0_464_2300)">
<path d="M29.2207 49.8143C57.0824 45.8341 57.083 4.22838 29.2207 0.248047C45.9666 12.2673 45.9213 37.7899 29.2207 49.8143Z" fill="#2C2C2C"/>
<path d="M18.1914 48.8239C19.9262 49.3815 21.6611 49.7533 23.5198 49.8772C37.9186 36.6673 37.9279 13.3324 23.5198 0.125C21.6611 0.310873 19.8643 0.68262 18.1914 1.17828C30.2877 14.458 30.2838 35.5486 18.1914 48.8239Z" fill="#2C2C2C"/>
<path d="M11.7489 45.7257C23.4926 34.6418 23.6042 15.3939 11.7489 4.33789C-2.72056 13.9842 -2.72665 36.0754 11.7489 45.7257Z" fill="#2C2C2C"/>
<mask id="mask0_464_2300" style="mask-type:luminance" maskUnits="userSpaceOnUse" x="65" y="0" width="109" height="50">
<path d="M173.719 0H65.7188V50H173.719V0Z" fill="white"/>
</mask>
<g mask="url(#mask0_464_2300)">
<path d="M78.1497 16.9878C73.6547 16.9878 71.0817 20.2428 71.0817 25.1408C71.0817 30.1938 73.9957 32.9528 78.1807 32.9528C82.1177 32.9528 84.5047 30.7828 84.5047 27.1558V27.0628H77.6537V23.5598H88.1937V36.3008H84.8457L84.5977 33.6968C83.3577 35.4328 80.7847 36.6418 77.7157 36.6418C71.3607 36.6418 66.9277 32.0228 66.9277 25.0478C66.9277 18.1658 71.4227 13.2678 78.2427 13.2678C83.4197 13.2678 87.4187 16.2748 88.0697 20.8938H83.8847C83.1717 18.2278 80.8777 16.9878 78.1497 16.9878ZM101.531 20.9248V24.4278H100.136C97.4077 24.4278 95.7027 25.8848 95.7027 28.8608V36.3008H91.9207V21.0178H95.4857L95.7027 23.2498C96.3537 21.7308 97.8107 20.7078 99.8567 20.7078C100.384 20.7078 100.911 20.7698 101.531 20.9248ZM108.042 36.7038C104.787 36.7038 102.803 34.8128 102.803 31.9298C102.803 29.1088 104.849 27.3418 108.476 27.0628L113.064 26.7218V26.3808C113.064 24.3038 111.824 23.4668 109.902 23.4668C107.67 23.4668 106.43 24.3968 106.43 26.0088H103.206C103.206 22.6918 105.934 20.5218 110.088 20.5218C114.211 20.5218 116.753 22.7538 116.753 27.0008V36.3008H113.436L113.157 34.0378C112.506 35.6188 110.429 36.7038 108.042 36.7038ZM109.282 33.8518C111.607 33.8518 113.095 32.4568 113.095 30.1008V29.2948L109.902 29.5428C107.546 29.7598 106.647 30.5348 106.647 31.7748C106.647 33.1698 107.577 33.8518 109.282 33.8518ZM120.469 43.3998V20.9868H123.972L124.22 23.3118C125.15 21.5448 127.165 20.5218 129.49 20.5218C133.799 20.5218 136.651 23.6528 136.651 28.4578C136.651 33.2318 134.047 36.7038 129.49 36.7038C127.196 36.7038 125.212 35.8048 124.251 34.2548V43.3998H120.469ZM124.282 28.6438C124.282 31.4028 125.987 33.2938 128.591 33.2938C131.257 33.2938 132.838 31.3718 132.838 28.6438C132.838 25.9158 131.257 23.9628 128.591 23.9628C125.987 23.9628 124.282 25.8848 124.282 28.6438ZM143.444 36.3008H139.662V13.2368H143.475V22.9708C144.436 21.4828 146.234 20.5218 148.435 20.5218C152.217 20.5218 154.201 22.9088 154.201 26.8768V36.3008H150.419V27.7758C150.419 25.2028 149.148 23.9628 147.226 23.9628C144.839 23.9628 143.444 25.6368 143.444 27.9308V36.3008ZM157.018 28.6128C157.018 23.8388 160.459 20.5528 165.202 20.5528C169.945 20.5528 173.386 23.8388 173.386 28.6128C173.386 33.3868 169.945 36.6728 165.202 36.6728C160.459 36.6728 157.018 33.3868 157.018 28.6128ZM160.8 28.6128C160.8 31.4028 162.598 33.2938 165.202 33.2938C167.806 33.2938 169.604 31.4028 169.604 28.6128C169.604 25.8228 167.806 23.9318 165.202 23.9318C162.598 23.9318 160.8 25.8228 160.8 28.6128Z" fill="#2C2C2C"/>
</g>
</g>
<defs>
<clipPath id="clip0_464_2300">
<rect width="174" height="50" fill="white"/>
</clipPath>
</defs>
</svg>
