<svg width="57" height="56" viewBox="0 0 57 56" fill="none" xmlns="http://www.w3.org/2000/svg">
<path d="M51.0801 28C51.0801 40.5645 40.8946 50.75 28.3301 50.75C15.7656 50.75 5.58008 40.5645 5.58008 28C5.58008 15.4355 15.7656 5.25 28.3301 5.25C40.8946 5.25 51.0801 15.4355 51.0801 28Z" fill="#F2F2F2" stroke="#2C2C2C" stroke-width="3" stroke-linejoin="round"/>
<path fill-rule="evenodd" clip-rule="evenodd" d="M31.5449 26.6139H38.8301C39.6585 26.6139 40.3301 27.2855 40.3301 28.1139C40.3301 28.9424 39.6585 29.6139 38.8301 29.6139H31.4366C30.8531 30.7347 29.681 31.5 28.3301 31.5C26.3971 31.5 24.8301 29.933 24.8301 28C24.8301 26.6038 25.6476 25.3985 26.8301 24.8368V15.2806C26.8301 14.4522 27.5017 13.7806 28.3301 13.7806C29.1585 13.7806 29.8301 14.4522 29.8301 15.2806V24.8368C30.5955 25.2004 31.2081 25.8337 31.5449 26.6139Z" fill="#2C2C2C"/>
</svg>
