<svg width="56" height="56" viewBox="0 0 56 56" fill="none" xmlns="http://www.w3.org/2000/svg">
<path d="M5.25 25.2C5.25 16.8881 5.25 12.7321 7.36673 9.81871C8.05034 8.8778 8.8778 8.05034 9.81871 7.36673C12.7321 5.25 16.8881 5.25 25.2 5.25H30.8C39.1119 5.25 43.2679 5.25 46.1813 7.36673C47.1222 8.05034 47.9497 8.8778 48.6333 9.81871C50.75 12.7321 50.75 16.8881 50.75 25.2V30.8C50.75 39.1119 50.75 43.2679 48.6333 46.1813C47.9497 47.1222 47.1222 47.9497 46.1813 48.6333C43.2679 50.75 39.1119 50.75 30.8 50.75H25.2C16.8881 50.75 12.7321 50.75 9.81871 48.6333C8.8778 47.9497 8.05034 47.1222 7.36673 46.1813C5.25 43.2679 5.25 39.1119 5.25 30.8V25.2Z" fill="#F2F2F2" stroke="#2C2C2C" stroke-width="3" stroke-linejoin="round"/>
<path d="M26.1984 15.9095C26.0036 15.1305 25.3037 14.584 24.5007 14.584C23.6976 14.584 22.9977 15.1305 22.8029 15.9095C22.269 18.0451 21.5121 19.4726 20.4924 20.4924C19.4726 21.5121 18.0451 22.269 15.9095 22.8029C15.1305 22.9977 14.584 23.6976 14.584 24.5007C14.584 25.3037 15.1305 26.0036 15.9095 26.1984C18.0451 26.7323 19.4726 27.4892 20.4924 28.5089C21.5121 29.5287 22.269 30.9562 22.8029 33.0918C22.9977 33.8708 23.6976 34.4173 24.5007 34.4173C25.3037 34.4173 26.0036 33.8708 26.1984 33.0918C26.7323 30.9562 27.4892 29.5287 28.5089 28.5089C29.5287 27.4892 30.9562 26.7323 33.0918 26.1984C33.8708 26.0036 34.4173 25.3037 34.4173 24.5007C34.4173 23.6976 33.8708 22.9977 33.0918 22.8029C30.9562 22.269 29.5287 21.5121 28.5089 20.4924C27.4892 19.4726 26.7323 18.0451 26.1984 15.9095Z" fill="#2C2C2C"/>
<path d="M37.281 31.0762C37.0863 30.2972 36.3863 29.7507 35.5833 29.7507C34.7803 29.7507 34.0803 30.2972 33.8855 31.0762C33.6433 32.0451 33.3239 32.5976 32.9604 32.9611C32.5969 33.3246 32.0444 33.644 31.0755 33.8862C30.2965 34.081 29.75 34.781 29.75 35.584C29.75 36.387 30.2965 37.087 31.0755 37.2817C32.0444 37.524 32.5969 37.8433 32.9604 38.2068C33.3239 38.5703 33.6433 39.1229 33.8855 40.0918C34.0803 40.8708 34.7803 41.4173 35.5833 41.4173C36.3863 41.4173 37.0863 40.8708 37.281 40.0918C37.5233 39.1229 37.8426 38.5703 38.2061 38.2068C38.5696 37.8433 39.1222 37.524 40.0911 37.2817C40.8701 37.087 41.4166 36.387 41.4166 35.584C41.4166 34.781 40.8701 34.081 40.0911 33.8862C39.1222 33.644 38.5696 33.3246 38.2061 32.9611C37.8426 32.5976 37.5233 32.0451 37.281 31.0762Z" fill="#2C2C2C"/>
</svg>
