<svg width="57" height="56" viewBox="0 0 57 56" fill="none" xmlns="http://www.w3.org/2000/svg">
<path d="M51.4102 28C51.4102 40.5645 41.2246 50.75 28.6602 50.75C16.0957 50.75 5.91016 40.5645 5.91016 28C5.91016 15.4355 16.0957 5.25 28.6602 5.25C41.2246 5.25 51.4102 15.4355 51.4102 28Z" fill="#F2F2F2" stroke="#2C2C2C" stroke-width="3"/>
<path d="M26.3262 21C26.3262 22.933 24.7592 24.5 22.8262 24.5C20.8932 24.5 19.3262 22.933 19.3262 21C19.3262 19.067 20.8932 17.5 22.8262 17.5C24.7592 17.5 26.3262 19.067 26.3262 21Z" fill="#2C2C2C"/>
<path d="M37.9922 21C37.9922 22.933 36.4252 24.5 34.4922 24.5C32.5592 24.5 30.9922 22.933 30.9922 21C30.9922 19.067 32.5592 17.5 34.4922 17.5C36.4252 17.5 37.9922 19.067 37.9922 21Z" fill="#2C2C2C"/>
<path d="M17.9648 31.5C19.7651 35.6204 23.8767 38.5 28.6607 38.5C33.4448 38.5 37.5563 35.6204 39.3566 31.5" stroke="#2C2C2C" stroke-width="3" stroke-linecap="round" stroke-linejoin="round"/>
</svg>
